<?xml version="1.0" encoding="UTF-8"?>
<svg xmlns="http://www.w3.org/2000/svg" xmlns:xlink="http://www.w3.org/1999/xlink" width="75px" height="76px" viewBox="0 0 75 76" version="1.1">
<g id="surface1">
<path style=" stroke:none;fill-rule:nonzero;fill:rgb(0%,0%,0%);fill-opacity:1;" d="M 0 38 L 0 76 L 74.949219 76 L 74.949219 0 L 0 0 Z M 40.910156 7.109375 L 44.410156 10.597656 L 54.460938 10.597656 L 54.460938 20.617188 L 57.988281 24.132812 L 61.527344 27.660156 L 57.988281 31.1875 L 54.460938 34.703125 L 54.460938 44.722656 L 44.425781 44.722656 L 40.84375 48.277344 L 37.28125 51.828125 L 33.714844 48.277344 L 30.148438 44.722656 L 20.097656 44.722656 L 20.097656 34.703125 L 16.570312 31.1875 L 13.03125 27.660156 L 16.570312 24.132812 L 20.097656 20.617188 L 20.097656 10.597656 L 30.148438 10.597656 L 33.648438 7.109375 C 35.566406 5.183594 37.203125 3.617188 37.28125 3.617188 C 37.355469 3.617188 38.992188 5.183594 40.910156 7.109375 Z M 28.878906 55.4375 C 29.589844 55.773438 29.847656 56.289062 29.925781 57.542969 L 29.992188 58.550781 L 28.785156 58.550781 L 28.785156 57.738281 C 28.785156 56.765625 28.578125 56.417969 27.890625 56.210938 C 27.515625 56.09375 27.28125 56.09375 26.917969 56.222656 C 26.324219 56.417969 26.0625 56.792969 26.0625 57.441406 C 26.0625 57.917969 26.167969 58.046875 27.867188 59.765625 C 28.851562 60.773438 29.734375 61.71875 29.8125 61.871094 C 29.886719 62.027344 29.992188 62.492188 30.03125 62.90625 C 30.082031 63.527344 30.058594 63.761719 29.796875 64.238281 C 29.382812 65.039062 28.8125 65.3125 27.488281 65.296875 C 25.636719 65.285156 24.988281 64.691406 24.972656 62.945312 L 24.960938 61.976562 L 25.519531 61.9375 L 26.0625 61.898438 L 26.0625 62.738281 C 26.0625 63.4375 26.113281 63.644531 26.375 63.941406 C 26.660156 64.265625 26.777344 64.300781 27.464844 64.300781 C 28.421875 64.300781 28.914062 63.941406 28.914062 63.253906 C 28.914062 62.53125 28.722656 62.261719 26.933594 60.476562 C 25.246094 58.808594 25.179688 58.71875 25.027344 58.007812 C 24.949219 57.609375 24.921875 57.066406 24.972656 56.804688 C 25.078125 56.238281 25.582031 55.605469 26.128906 55.371094 C 26.722656 55.113281 28.230469 55.152344 28.878906 55.4375 Z M 58.15625 55.449219 C 58.90625 55.8125 59.167969 56.328125 59.230469 57.609375 L 59.296875 58.679688 L 58.089844 58.679688 L 58.089844 57.800781 C 58.089844 56.765625 57.898438 56.417969 57.195312 56.210938 C 56.820312 56.09375 56.585938 56.09375 56.222656 56.222656 C 55.382812 56.496094 55.367188 56.546875 55.367188 60.257812 C 55.367188 63.515625 55.367188 63.578125 55.667969 63.914062 C 56.003906 64.316406 56.859375 64.484375 57.429688 64.25 C 57.871094 64.058594 58.089844 63.628906 58.089844 62.945312 C 58.089844 62.414062 58.234375 62.300781 58.871094 62.339844 C 59.167969 62.363281 59.195312 62.429688 59.230469 63.011719 C 59.285156 63.890625 58.855469 64.714844 58.183594 65.050781 C 57.46875 65.414062 56.003906 65.402344 55.277344 65.027344 C 54.292969 64.535156 54.265625 64.417969 54.265625 60.230469 C 54.265625 56.042969 54.277344 55.953125 55.265625 55.460938 C 56.015625 55.101562 57.402344 55.085938 58.15625 55.449219 Z M 5.316406 55.605469 C 5.382812 55.773438 5.796875 57.464844 6.222656 59.390625 C 7.195312 63.785156 7.132812 63.5 7.210938 63.421875 C 7.25 63.386719 7.6875 61.601562 8.167969 59.46875 C 8.660156 57.324219 9.101562 55.511719 9.140625 55.449219 C 9.230469 55.292969 10.074219 55.269531 10.152344 55.410156 C 10.203125 55.5 9.621094 58.203125 8.351562 63.683594 L 8.011719 65.144531 L 7.183594 65.144531 C 6.730469 65.144531 6.355469 65.105469 6.355469 65.066406 C 6.355469 65.011719 5.886719 62.933594 5.316406 60.414062 C 4.746094 57.90625 4.277344 55.734375 4.277344 55.589844 C 4.277344 55.371094 4.355469 55.320312 4.734375 55.320312 C 5.082031 55.320312 5.226562 55.382812 5.316406 55.605469 Z M 17.945312 55.421875 C 18.035156 55.566406 20.097656 64.691406 20.097656 64.9375 C 20.097656 65.089844 19.96875 65.144531 19.578125 65.144531 C 19.101562 65.144531 19.0625 65.117188 18.945312 64.652344 C 18.867188 64.394531 18.800781 64.109375 18.800781 64.042969 C 18.800781 63.964844 18.738281 63.695312 18.660156 63.421875 L 18.53125 62.933594 L 17.140625 62.972656 L 15.753906 63.011719 L 15.496094 64.042969 C 15.234375 65.066406 15.234375 65.078125 14.796875 65.117188 C 14.5625 65.144531 14.316406 65.117188 14.261719 65.050781 C 14.160156 64.949219 16.09375 56.171875 16.339844 55.605469 C 16.441406 55.359375 16.558594 55.320312 17.167969 55.320312 C 17.558594 55.320312 17.90625 55.371094 17.945312 55.421875 Z M 39.652344 55.863281 L 39.691406 56.355469 L 37.734375 56.355469 L 37.734375 65.15625 L 37.1875 65.117188 L 36.632812 65.078125 L 36.59375 60.722656 L 36.566406 56.367188 L 35.621094 56.328125 C 34.75 56.289062 34.6875 56.261719 34.648438 55.992188 C 34.542969 55.320312 34.554688 55.308594 37.175781 55.34375 L 39.613281 55.382812 Z M 48.949219 55.835938 L 48.949219 56.289062 L 47.367188 56.328125 L 45.773438 56.367188 L 45.773438 59.714844 L 48.367188 59.714844 L 48.367188 60.617188 L 45.773438 60.617188 L 45.773438 64.097656 L 47.433594 64.132812 L 49.078125 64.171875 L 49.117188 64.664062 L 49.15625 65.144531 L 46.914062 65.117188 L 44.671875 65.078125 L 44.632812 60.359375 C 44.617188 57.761719 44.632812 55.566406 44.671875 55.476562 C 44.710938 55.34375 45.214844 55.320312 46.835938 55.34375 L 48.949219 55.382812 Z M 65.898438 57.476562 L 65.9375 59.648438 L 67.324219 59.6875 L 68.722656 59.726562 L 68.75 57.554688 L 68.789062 55.382812 L 69.828125 55.382812 L 69.863281 60.269531 L 69.890625 65.15625 L 69.347656 65.117188 L 68.789062 65.078125 L 68.75 62.84375 L 68.722656 60.605469 L 67.324219 60.644531 L 65.9375 60.683594 L 65.898438 62.90625 L 65.871094 65.144531 L 64.835938 65.144531 L 64.835938 60.320312 C 64.835938 57.660156 64.871094 55.449219 64.925781 55.410156 C 64.964844 55.359375 65.195312 55.320312 65.429688 55.320312 L 65.871094 55.320312 Z M 5.796875 67.546875 C 5.953125 67.597656 6.132812 67.792969 6.210938 68.011719 C 6.417969 68.59375 6.394531 68.761719 6.09375 68.761719 C 5.898438 68.761719 5.835938 68.671875 5.835938 68.386719 C 5.835938 68.117188 5.757812 67.972656 5.574219 67.921875 C 5.082031 67.765625 4.925781 68.0625 4.925781 69.148438 C 4.925781 70.402344 4.992188 70.570312 5.445312 70.570312 C 5.730469 70.570312 5.820312 70.507812 5.859375 70.273438 C 5.898438 69.949219 6.261719 69.886719 6.328125 70.195312 C 6.339844 70.3125 6.25 70.53125 6.121094 70.699219 C 5.925781 70.933594 5.746094 71.011719 5.367188 70.996094 C 4.628906 70.972656 4.527344 70.753906 4.5625 69.148438 C 4.601562 67.855469 4.617188 67.792969 4.925781 67.636719 C 5.289062 67.457031 5.394531 67.445312 5.796875 67.546875 Z M 36.191406 67.742188 C 36.347656 67.894531 36.4375 68.128906 36.410156 68.335938 C 36.359375 68.839844 36.0625 68.867188 35.96875 68.386719 C 35.867188 67.910156 35.75 67.804688 35.398438 67.921875 C 35.21875 67.972656 35.140625 68.117188 35.140625 68.347656 C 35.140625 68.890625 35.28125 69.007812 36.035156 69.046875 C 36.746094 69.085938 37.058594 69.316406 36.566406 69.445312 C 36.359375 69.5 36.308594 69.613281 36.308594 70.09375 C 36.308594 70.765625 36.085938 71.011719 35.464844 71.011719 C 34.816406 71.011719 34.621094 70.777344 34.621094 69.976562 C 34.621094 69.601562 34.671875 69.265625 34.75 69.214844 C 34.828125 69.164062 34.828125 69.019531 34.738281 68.800781 C 34.671875 68.605469 34.648438 68.296875 34.699219 68.089844 C 34.828125 67.46875 35.710938 67.261719 36.191406 67.742188 Z M 49.636719 67.820312 C 49.804688 68.0625 49.855469 70.402344 49.6875 70.660156 C 49.402344 71.101562 48.328125 71.128906 48.09375 70.6875 C 48.027344 70.546875 47.988281 69.847656 48.003906 69.125 C 48.042969 67.855469 48.054688 67.792969 48.367188 67.636719 C 48.753906 67.429688 49.402344 67.519531 49.636719 67.820312 Z M 9.777344 67.804688 C 10.050781 68.0625 10.0625 69.332031 9.804688 69.5625 C 9.648438 69.707031 9.671875 69.820312 9.933594 70.339844 C 10.242188 70.945312 10.242188 70.960938 9.984375 70.960938 C 9.804688 70.960938 9.632812 70.777344 9.441406 70.378906 C 9.285156 70.054688 9.078125 69.796875 8.984375 69.796875 C 8.871094 69.796875 8.816406 69.988281 8.816406 70.378906 C 8.816406 70.804688 8.765625 70.960938 8.621094 70.960938 C 8.453125 70.960938 8.429688 70.6875 8.429688 69.277344 L 8.429688 67.597656 L 9 67.597656 C 9.347656 67.597656 9.660156 67.675781 9.777344 67.804688 Z M 13.613281 67.792969 C 13.613281 67.933594 13.472656 67.988281 13.097656 67.988281 C 12.578125 67.988281 12.578125 67.988281 12.578125 68.492188 C 12.578125 68.96875 12.605469 69.007812 12.992188 69.046875 C 13.589844 69.097656 13.628906 69.40625 13.042969 69.40625 C 12.578125 69.40625 12.578125 69.40625 12.578125 69.988281 L 12.578125 70.570312 L 13.160156 70.570312 C 13.601562 70.570312 13.746094 70.625 13.746094 70.765625 C 13.746094 70.933594 13.601562 70.960938 12.941406 70.933594 L 12.125 70.894531 L 12.085938 69.421875 C 12.070312 68.605469 12.085938 67.855469 12.109375 67.765625 C 12.214844 67.507812 13.613281 67.535156 13.613281 67.792969 Z M 17.011719 69.148438 C 17.207031 69.964844 17.375 70.714844 17.375 70.792969 C 17.375 71.128906 17.011719 70.945312 16.871094 70.558594 C 16.753906 70.210938 16.6875 70.171875 16.3125 70.210938 C 15.976562 70.234375 15.871094 70.3125 15.84375 70.546875 C 15.804688 70.828125 15.496094 71.0625 15.367188 70.933594 C 15.300781 70.882812 15.859375 68.191406 16.015625 67.753906 C 16.054688 67.664062 16.207031 67.597656 16.363281 67.625 C 16.625 67.664062 16.703125 67.84375 17.011719 69.148438 Z M 20.359375 67.792969 C 20.359375 67.910156 20.242188 67.988281 20.035156 67.988281 L 19.710938 67.988281 L 19.710938 69.472656 C 19.710938 70.714844 19.671875 70.960938 19.515625 70.960938 C 19.359375 70.960938 19.320312 70.714844 19.320312 69.539062 C 19.320312 68.375 19.28125 68.089844 19.125 68.050781 C 19.023438 68.011719 18.839844 67.960938 18.722656 67.921875 C 18.28125 67.78125 18.738281 67.597656 19.527344 67.597656 C 20.175781 67.597656 20.359375 67.636719 20.359375 67.792969 Z M 22.953125 67.792969 C 22.953125 67.894531 22.898438 67.988281 22.820312 67.988281 C 22.742188 67.988281 22.691406 68.503906 22.691406 69.277344 C 22.691406 70.054688 22.742188 70.570312 22.820312 70.570312 C 22.898438 70.570312 22.953125 70.660156 22.953125 70.765625 C 22.953125 70.894531 22.808594 70.960938 22.496094 70.960938 C 22.1875 70.960938 22.042969 70.894531 22.042969 70.765625 C 22.042969 70.660156 22.109375 70.570312 22.171875 70.570312 C 22.25 70.570312 22.304688 70.054688 22.304688 69.277344 C 22.304688 68.503906 22.25 67.988281 22.171875 67.988281 C 22.109375 67.988281 22.042969 67.894531 22.042969 67.792969 C 22.042969 67.664062 22.1875 67.597656 22.496094 67.597656 C 22.808594 67.597656 22.953125 67.664062 22.953125 67.792969 Z M 25.207031 67.820312 C 25.234375 67.949219 25.363281 68.503906 25.492188 69.070312 C 25.621094 69.679688 25.753906 70.015625 25.804688 69.925781 C 25.867188 69.835938 26.011719 69.265625 26.140625 68.671875 C 26.324219 67.78125 26.402344 67.597656 26.609375 67.597656 C 26.789062 67.597656 26.839844 67.664062 26.789062 67.820312 C 26.761719 67.949219 26.609375 68.605469 26.453125 69.277344 C 26.078125 70.984375 26.078125 70.960938 25.753906 70.960938 C 25.480469 70.960938 25.429688 70.84375 25.105469 69.371094 C 24.921875 68.503906 24.765625 67.753906 24.765625 67.6875 C 24.765625 67.496094 25.144531 67.613281 25.207031 67.820312 Z M 30.316406 67.753906 C 30.277344 67.84375 30.019531 67.933594 29.71875 67.960938 C 29.175781 68 29.175781 68 29.175781 68.515625 C 29.175781 69.007812 29.1875 69.019531 29.628906 69.019531 C 29.941406 69.019531 30.082031 69.085938 30.082031 69.214844 C 30.082031 69.34375 29.941406 69.40625 29.628906 69.40625 C 29.175781 69.40625 29.175781 69.40625 29.175781 69.988281 L 29.175781 70.570312 L 29.757812 70.570312 C 30.1875 70.570312 30.34375 70.625 30.34375 70.765625 C 30.34375 70.921875 30.171875 70.960938 29.5625 70.960938 L 28.785156 70.960938 L 28.785156 67.597656 L 29.578125 67.597656 C 30.148438 67.597656 30.355469 67.636719 30.316406 67.753906 Z M 41.882812 67.792969 C 41.882812 67.894531 41.832031 67.988281 41.753906 67.988281 C 41.675781 67.988281 41.625 68.503906 41.625 69.277344 C 41.625 70.054688 41.675781 70.570312 41.753906 70.570312 C 41.832031 70.570312 41.882812 70.660156 41.882812 70.765625 C 41.882812 70.894531 41.753906 70.960938 41.441406 70.960938 C 40.988281 70.960938 40.730469 70.792969 40.976562 70.636719 C 41.054688 70.597656 41.105469 70.003906 41.105469 69.277344 C 41.105469 68.554688 41.054688 67.960938 40.976562 67.921875 C 40.730469 67.765625 40.988281 67.597656 41.441406 67.597656 C 41.753906 67.597656 41.882812 67.664062 41.882812 67.792969 Z M 44.851562 68.761719 L 45.320312 69.859375 L 45.359375 68.722656 C 45.382812 67.84375 45.4375 67.597656 45.578125 67.597656 C 45.734375 67.597656 45.773438 67.894531 45.773438 69.292969 C 45.773438 70.792969 45.746094 70.972656 45.550781 70.933594 C 45.421875 70.90625 45.164062 70.46875 44.878906 69.820312 L 44.410156 68.734375 L 44.371094 69.847656 C 44.347656 70.714844 44.292969 70.960938 44.152344 70.960938 C 43.996094 70.960938 43.957031 70.660156 43.957031 69.265625 C 43.957031 67.765625 43.984375 67.585938 44.179688 67.625 C 44.308594 67.648438 44.566406 68.089844 44.851562 68.761719 Z M 52.320312 68.789062 C 52.464844 69.40625 52.621094 69.9375 52.65625 69.976562 C 52.695312 70.027344 52.800781 69.71875 52.890625 69.316406 C 53.203125 67.882812 53.304688 67.597656 53.488281 67.597656 C 53.734375 67.597656 53.746094 67.535156 53.332031 69.371094 C 53.007812 70.828125 52.957031 70.960938 52.683594 70.960938 C 52.371094 70.960938 52.335938 70.867188 51.945312 69.085938 C 51.828125 68.582031 51.710938 68.050781 51.671875 67.882812 C 51.609375 67.636719 51.648438 67.585938 51.828125 67.625 C 51.996094 67.648438 52.125 67.949219 52.320312 68.789062 Z M 56.964844 69.175781 C 57.378906 71.035156 57.363281 70.960938 57.117188 70.960938 C 57.003906 70.960938 56.886719 70.792969 56.832031 70.558594 C 56.769531 70.195312 56.71875 70.171875 56.289062 70.210938 C 55.914062 70.234375 55.808594 70.3125 55.78125 70.546875 C 55.746094 70.828125 55.433594 71.0625 55.304688 70.933594 C 55.238281 70.882812 55.796875 68.191406 55.953125 67.753906 C 55.976562 67.675781 56.144531 67.597656 56.300781 67.597656 C 56.574219 67.597656 56.625 67.726562 56.964844 69.175781 Z M 60.296875 67.792969 C 60.296875 67.910156 60.179688 67.988281 59.972656 67.988281 L 59.648438 67.988281 L 59.648438 69.472656 C 59.648438 70.714844 59.609375 70.960938 59.453125 70.960938 C 59.296875 70.960938 59.257812 70.714844 59.257812 69.539062 C 59.257812 68.375 59.21875 68.089844 59.0625 68.050781 C 58.960938 68.011719 58.777344 67.960938 58.660156 67.921875 C 58.222656 67.78125 58.675781 67.597656 59.464844 67.597656 C 60.113281 67.597656 60.296875 67.636719 60.296875 67.792969 Z M 62.890625 67.792969 C 62.890625 67.894531 62.835938 67.988281 62.757812 67.988281 C 62.679688 67.988281 62.628906 68.503906 62.628906 69.277344 C 62.628906 70.054688 62.679688 70.570312 62.757812 70.570312 C 62.835938 70.570312 62.890625 70.660156 62.890625 70.765625 C 62.890625 70.894531 62.746094 70.960938 62.433594 70.960938 C 62.125 70.960938 61.980469 70.894531 61.980469 70.765625 C 61.980469 70.660156 62.046875 70.570312 62.109375 70.570312 C 62.1875 70.570312 62.242188 70.054688 62.242188 69.277344 C 62.242188 68.503906 62.1875 67.988281 62.109375 67.988281 C 62.046875 67.988281 61.980469 67.894531 61.980469 67.792969 C 61.980469 67.664062 62.125 67.597656 62.433594 67.597656 C 62.746094 67.597656 62.890625 67.664062 62.890625 67.792969 Z M 65.144531 67.820312 C 65.171875 67.949219 65.300781 68.503906 65.429688 69.070312 C 65.558594 69.679688 65.691406 70.015625 65.742188 69.925781 C 65.804688 69.835938 65.949219 69.265625 66.078125 68.671875 C 66.261719 67.78125 66.339844 67.597656 66.546875 67.597656 C 66.726562 67.597656 66.777344 67.664062 66.726562 67.820312 C 66.6875 67.949219 66.53125 68.605469 66.390625 69.277344 C 66.027344 70.960938 66.027344 70.960938 65.691406 70.960938 C 65.417969 70.960938 65.367188 70.84375 65.042969 69.371094 C 64.859375 68.503906 64.703125 67.753906 64.703125 67.6875 C 64.703125 67.496094 65.082031 67.613281 65.144531 67.820312 Z M 70.253906 67.753906 C 70.214844 67.84375 69.957031 67.933594 69.65625 67.960938 C 69.113281 68 69.113281 68 69.113281 68.515625 C 69.113281 69.007812 69.125 69.019531 69.566406 69.019531 C 69.878906 69.019531 70.019531 69.085938 70.019531 69.214844 C 70.019531 69.34375 69.878906 69.40625 69.566406 69.40625 C 69.113281 69.40625 69.113281 69.40625 69.113281 69.988281 L 69.113281 70.570312 L 69.695312 70.570312 C 70.125 70.570312 70.28125 70.625 70.28125 70.765625 C 70.28125 70.921875 70.113281 70.960938 69.503906 70.960938 L 68.722656 70.960938 L 68.722656 67.597656 L 69.515625 67.597656 C 70.085938 67.597656 70.292969 67.636719 70.253906 67.753906 Z M 70.253906 67.753906 "/>
<path style=" stroke:none;fill-rule:nonzero;fill:rgb(0%,0%,0%);fill-opacity:1;" d="M 34.6875 8.011719 L 32.09375 10.597656 L 42.464844 10.597656 L 39.871094 8.011719 C 38.445312 6.59375 37.28125 5.429688 37.28125 5.429688 C 37.28125 5.429688 36.113281 6.59375 34.6875 8.011719 Z M 34.6875 8.011719 "/>
<path style=" stroke:none;fill-rule:nonzero;fill:rgb(0%,0%,0%);fill-opacity:1;" d="M 21.523438 15.535156 L 21.523438 19.195312 L 25.15625 15.574219 C 27.152344 13.585938 28.785156 11.941406 28.785156 11.929688 C 28.785156 11.902344 27.152344 11.890625 25.15625 11.890625 L 21.523438 11.890625 Z M 21.523438 15.535156 "/>
<path style=" stroke:none;fill-rule:nonzero;fill:rgb(0%,0%,0%);fill-opacity:1;" d="M 29.007812 13.675781 C 28.035156 14.644531 27.230469 15.496094 27.230469 15.550781 C 27.230469 15.601562 28.359375 15.640625 29.734375 15.640625 L 32.222656 15.640625 L 34.011719 13.855469 C 34.984375 12.886719 35.789062 12.035156 35.789062 11.980469 C 35.789062 11.929688 34.660156 11.890625 33.285156 11.890625 L 30.796875 11.890625 Z M 29.007812 13.675781 "/>
<path style=" stroke:none;fill-rule:nonzero;fill:rgb(0%,0%,0%);fill-opacity:1;" d="M 38.769531 11.996094 C 38.769531 12.046875 39.574219 12.886719 40.558594 13.867188 L 42.335938 15.640625 L 44.839844 15.640625 C 46.199219 15.640625 47.328125 15.601562 47.328125 15.535156 C 47.328125 15.484375 46.523438 14.644531 45.539062 13.660156 L 43.761719 11.890625 L 41.261719 11.890625 C 39.898438 11.890625 38.769531 11.929688 38.769531 11.996094 Z M 38.769531 11.996094 "/>
<path style=" stroke:none;fill-rule:nonzero;fill:rgb(0%,0%,0%);fill-opacity:1;" d="M 45.902344 11.980469 C 45.902344 12.109375 52.945312 19.128906 53.074219 19.128906 C 53.125 19.128906 53.152344 17.511719 53.136719 15.535156 L 53.097656 11.957031 L 49.507812 11.917969 C 47.523438 11.902344 45.902344 11.929688 45.902344 11.980469 Z M 45.902344 11.980469 "/>
<path style=" stroke:none;fill-rule:nonzero;fill:rgb(0%,0%,0%);fill-opacity:1;" d="M 35.453125 13.792969 L 33.648438 15.574219 L 37.203125 15.613281 C 39.160156 15.625 40.78125 15.613281 40.832031 15.574219 C 40.898438 15.496094 37.472656 12.019531 37.332031 12.019531 C 37.28125 12.019531 36.4375 12.820312 35.453125 13.792969 Z M 35.453125 13.792969 "/>
<path style=" stroke:none;fill-rule:nonzero;fill:rgb(0%,0%,0%);fill-opacity:1;" d="M 26.152344 16.632812 C 26.023438 16.75 26.039062 21.585938 26.167969 21.585938 C 26.21875 21.585938 27.398438 20.449219 28.785156 19.066406 L 31.316406 16.542969 L 28.773438 16.542969 C 27.371094 16.542969 26.191406 16.582031 26.152344 16.632812 Z M 26.152344 16.632812 "/>
<path style=" stroke:none;fill-rule:nonzero;fill:rgb(0%,0%,0%);fill-opacity:1;" d="M 31.367188 17.796875 C 30.652344 18.484375 30.082031 19.089844 30.082031 19.15625 C 30.082031 19.207031 30.914062 19.257812 31.9375 19.257812 L 33.777344 19.257812 L 35.140625 17.902344 L 36.5 16.542969 L 32.636719 16.542969 Z M 31.367188 17.796875 "/>
<path style=" stroke:none;fill-rule:nonzero;fill:rgb(0%,0%,0%);fill-opacity:1;" d="M 35.789062 17.902344 L 34.425781 19.257812 L 37.253906 19.257812 C 38.796875 19.257812 40.066406 19.21875 40.066406 19.15625 C 40.066406 18.972656 37.539062 16.542969 37.34375 16.542969 C 37.226562 16.542969 36.539062 17.152344 35.789062 17.902344 Z M 35.789062 17.902344 "/>
<path style=" stroke:none;fill-rule:nonzero;fill:rgb(0%,0%,0%);fill-opacity:1;" d="M 39.417969 17.902344 L 40.78125 19.257812 L 42.621094 19.257812 C 43.644531 19.257812 44.476562 19.21875 44.476562 19.15625 C 44.476562 19.101562 43.90625 18.496094 43.207031 17.796875 L 41.949219 16.542969 L 38.058594 16.542969 Z M 39.417969 17.902344 "/>
<path style=" stroke:none;fill-rule:nonzero;fill:rgb(0%,0%,0%);fill-opacity:1;" d="M 43.4375 16.648438 C 43.4375 16.765625 48.277344 21.585938 48.40625 21.585938 C 48.457031 21.585938 48.496094 20.449219 48.496094 19.066406 L 48.496094 16.542969 L 45.96875 16.542969 C 44.578125 16.542969 43.4375 16.582031 43.4375 16.648438 Z M 43.4375 16.648438 "/>
<path style=" stroke:none;fill-rule:nonzero;fill:rgb(0%,0%,0%);fill-opacity:1;" d="M 23.3125 19.347656 L 21.539062 21.132812 L 21.511719 23.628906 C 21.511719 25.011719 21.523438 26.148438 21.550781 26.171875 C 21.578125 26.210938 22.40625 25.421875 23.378906 24.453125 L 25.15625 22.671875 L 25.128906 20.125 L 25.089844 17.578125 Z M 23.3125 19.347656 "/>
<path style=" stroke:none;fill-rule:nonzero;fill:rgb(0%,0%,0%);fill-opacity:1;" d="M 49.402344 20.203125 L 49.402344 22.683594 L 51.191406 24.46875 C 52.164062 25.4375 53.019531 26.238281 53.074219 26.238281 C 53.125 26.238281 53.164062 25.113281 53.164062 23.742188 L 53.164062 21.261719 L 51.375 19.476562 C 50.402344 18.507812 49.546875 17.707031 49.496094 17.707031 C 49.441406 17.707031 49.402344 18.832031 49.402344 20.203125 Z M 49.402344 20.203125 "/>
<path style=" stroke:none;fill-rule:nonzero;fill:rgb(0%,0%,0%);fill-opacity:1;" d="M 29.304688 19.980469 C 29.148438 20.371094 29.125 23.652344 29.277344 23.652344 C 29.332031 23.652344 30.277344 22.75 31.378906 21.648438 L 33.390625 19.644531 L 29.433594 19.644531 Z M 29.304688 19.980469 "/>
<path style=" stroke:none;fill-rule:nonzero;fill:rgb(0%,0%,0%);fill-opacity:1;" d="M 31.601562 22.078125 L 29.175781 24.492188 L 29.175781 30.941406 L 31.535156 33.308594 L 33.894531 35.671875 L 40.652344 35.671875 L 43.023438 33.308594 L 45.382812 30.957031 L 45.382812 24.363281 L 43.011719 22 L 40.652344 19.644531 L 34.039062 19.644531 Z M 35.984375 21.480469 C 36.023438 21.648438 36.371094 23.199219 36.761719 24.933594 C 37.164062 26.675781 37.5 28.113281 37.527344 28.152344 C 37.605469 28.214844 37.65625 28.007812 38.445312 24.570312 C 38.835938 22.839844 39.199219 21.378906 39.238281 21.3125 C 39.316406 21.171875 40.027344 21.160156 40.105469 21.289062 C 40.144531 21.351562 39.742188 23.253906 39.222656 25.527344 L 38.289062 29.664062 L 37.617188 29.703125 C 37.03125 29.742188 36.941406 29.703125 36.824219 29.445312 C 36.683594 29.082031 35.011719 21.726562 35.011719 21.417969 C 35.011719 21.25 35.128906 21.199219 35.464844 21.199219 C 35.828125 21.199219 35.929688 21.25 35.984375 21.480469 Z M 35.984375 21.480469 "/>
<path style=" stroke:none;fill-rule:nonzero;fill:rgb(0%,0%,0%);fill-opacity:1;" d="M 41.363281 19.75 C 41.363281 19.867188 45.164062 23.652344 45.292969 23.652344 C 45.460938 23.652344 45.398438 19.96875 45.226562 19.800781 C 45.058594 19.632812 41.363281 19.570312 41.363281 19.75 Z M 41.363281 19.75 "/>
<path style=" stroke:none;fill-rule:nonzero;fill:rgb(0%,0%,0%);fill-opacity:1;" d="M 45.773438 22.296875 L 45.773438 24.234375 L 47.042969 25.5 C 47.730469 26.1875 48.351562 26.753906 48.40625 26.753906 C 48.457031 26.753906 48.496094 25.929688 48.496094 24.90625 L 48.496094 23.070312 L 47.132812 21.714844 L 45.773438 20.355469 Z M 45.773438 22.296875 "/>
<path style=" stroke:none;fill-rule:nonzero;fill:rgb(0%,0%,0%);fill-opacity:1;" d="M 27.320312 21.832031 L 26.0625 23.097656 L 26.0625 24.933594 C 26.0625 25.929688 26.101562 26.753906 26.167969 26.753906 C 26.21875 26.753906 26.855469 26.160156 27.59375 25.421875 L 28.914062 24.105469 L 28.914062 22.320312 C 28.914062 20.953125 28.878906 20.550781 28.746094 20.550781 C 28.65625 20.550781 28.007812 21.121094 27.320312 21.832031 Z M 27.320312 21.832031 "/>
<path style=" stroke:none;fill-rule:nonzero;fill:rgb(0%,0%,0%);fill-opacity:1;" d="M 17.542969 25.101562 C 16.167969 26.472656 15.042969 27.660156 15.042969 27.722656 C 15.042969 27.90625 19.941406 32.765625 20.035156 32.6875 C 20.074219 32.648438 20.085938 30.359375 20.074219 27.609375 L 20.035156 22.617188 Z M 17.542969 25.101562 "/>
<path style=" stroke:none;fill-rule:nonzero;fill:rgb(0%,0%,0%);fill-opacity:1;" d="M 54.460938 27.632812 C 54.460938 30.425781 54.5 32.699219 54.5625 32.699219 C 54.617188 32.699219 55.78125 31.578125 57.15625 30.207031 L 59.660156 27.710938 L 57.714844 25.773438 C 56.652344 24.714844 55.484375 23.5625 55.121094 23.199219 L 54.460938 22.566406 Z M 54.460938 27.632812 "/>
<path style=" stroke:none;fill-rule:nonzero;fill:rgb(0%,0%,0%);fill-opacity:1;" d="M 23.210938 25.914062 L 21.460938 27.660156 L 23.3125 29.507812 L 25.15625 31.34375 L 25.15625 27.75 C 25.15625 25.785156 25.117188 24.171875 25.050781 24.171875 C 25 24.171875 24.171875 24.957031 23.210938 25.914062 Z M 23.210938 25.914062 "/>
<path style=" stroke:none;fill-rule:nonzero;fill:rgb(0%,0%,0%);fill-opacity:1;" d="M 49.402344 27.660156 C 49.402344 29.574219 49.441406 31.148438 49.507812 31.148438 C 49.558594 31.148438 50.390625 30.359375 51.347656 29.40625 L 53.097656 27.660156 L 51.347656 25.914062 C 50.390625 24.957031 49.558594 24.171875 49.507812 24.171875 C 49.441406 24.171875 49.402344 25.734375 49.402344 27.660156 Z M 49.402344 27.660156 "/>
<path style=" stroke:none;fill-rule:nonzero;fill:rgb(0%,0%,0%);fill-opacity:1;" d="M 45.773438 27.660156 L 45.773438 30.566406 L 47.132812 29.210938 C 47.886719 28.460938 48.496094 27.761719 48.496094 27.660156 C 48.496094 27.554688 47.886719 26.859375 47.132812 26.109375 L 45.773438 24.75 Z M 45.773438 27.660156 "/>
<path style=" stroke:none;fill-rule:nonzero;fill:rgb(0%,0%,0%);fill-opacity:1;" d="M 27.371094 26.238281 C 26.648438 26.9375 26.0625 27.59375 26.0625 27.6875 C 26.0625 27.917969 28.707031 30.527344 28.824219 30.414062 C 28.953125 30.285156 28.914062 25.085938 28.785156 25.011719 C 28.734375 24.972656 28.085938 25.527344 27.371094 26.238281 Z M 27.371094 26.238281 "/>
<path style=" stroke:none;fill-rule:nonzero;fill:rgb(0%,0%,0%);fill-opacity:1;" d="M 26.0625 30.414062 L 26.0625 32.25 L 27.398438 33.578125 C 28.136719 34.304688 28.773438 34.871094 28.824219 34.820312 C 28.878906 34.769531 28.914062 33.941406 28.914062 32.984375 L 28.914062 31.238281 L 27.59375 29.910156 C 26.867188 29.171875 26.230469 28.566406 26.167969 28.566406 C 26.113281 28.566406 26.0625 29.390625 26.0625 30.414062 Z M 26.0625 30.414062 "/>
<path style=" stroke:none;fill-rule:nonzero;fill:rgb(0%,0%,0%);fill-opacity:1;" d="M 47.03125 29.832031 L 45.773438 31.085938 L 45.773438 34.960938 L 47.132812 33.605469 L 48.496094 32.25 L 48.496094 30.414062 C 48.496094 29.390625 48.457031 28.566406 48.390625 28.566406 C 48.339844 28.566406 47.730469 29.132812 47.03125 29.832031 Z M 47.03125 29.832031 "/>
<path style=" stroke:none;fill-rule:nonzero;fill:rgb(0%,0%,0%);fill-opacity:1;" d="M 21.523438 31.769531 L 21.523438 34.316406 L 23.25 36.035156 C 24.195312 36.964844 25.011719 37.742188 25.066406 37.742188 C 25.117188 37.742188 25.15625 36.589844 25.15625 35.183594 L 25.15625 32.636719 L 23.429688 30.917969 C 22.484375 29.988281 21.667969 29.210938 21.617188 29.210938 C 21.5625 29.210938 21.523438 30.359375 21.523438 31.769531 Z M 21.523438 31.769531 "/>
<path style=" stroke:none;fill-rule:nonzero;fill:rgb(0%,0%,0%);fill-opacity:1;" d="M 51.179688 30.996094 L 49.402344 32.765625 L 49.402344 35.261719 C 49.402344 36.617188 49.441406 37.742188 49.507812 37.742188 C 49.558594 37.742188 50.402344 36.941406 51.386719 35.957031 L 53.164062 34.1875 L 53.164062 31.691406 C 53.164062 30.335938 53.125 29.210938 53.058594 29.210938 C 53.007812 29.210938 52.164062 30.011719 51.179688 30.996094 Z M 51.179688 30.996094 "/>
<path style=" stroke:none;fill-rule:nonzero;fill:rgb(0%,0%,0%);fill-opacity:1;" d="M 29.265625 31.746094 C 29.214844 31.796875 29.175781 32.636719 29.175781 33.605469 C 29.175781 34.960938 29.214844 35.414062 29.355469 35.53125 C 29.472656 35.632812 30.148438 35.671875 31.429688 35.648438 L 33.324219 35.609375 L 31.339844 33.632812 C 30.25 32.546875 29.316406 31.691406 29.265625 31.746094 Z M 29.265625 31.746094 "/>
<path style=" stroke:none;fill-rule:nonzero;fill:rgb(0%,0%,0%);fill-opacity:1;" d="M 43.179688 33.671875 L 41.167969 35.671875 L 43.128906 35.671875 C 44.464844 35.671875 45.125 35.621094 45.226562 35.519531 C 45.398438 35.351562 45.460938 31.667969 45.28125 31.667969 C 45.226562 31.667969 44.28125 32.570312 43.179688 33.671875 Z M 43.179688 33.671875 "/>
<path style=" stroke:none;fill-rule:nonzero;fill:rgb(0%,0%,0%);fill-opacity:1;" d="M 26.0625 36.253906 L 26.0625 38.777344 L 31.316406 38.777344 L 28.914062 36.371094 C 27.59375 35.054688 26.414062 33.914062 26.296875 33.851562 C 26.078125 33.734375 26.0625 33.890625 26.0625 36.253906 Z M 26.0625 36.253906 "/>
<path style=" stroke:none;fill-rule:nonzero;fill:rgb(0%,0%,0%);fill-opacity:1;" d="M 45.902344 36.253906 L 43.375 38.777344 L 48.496094 38.777344 L 48.496094 36.253906 C 48.496094 34.871094 48.484375 33.734375 48.457031 33.734375 C 48.445312 33.734375 47.289062 34.871094 45.902344 36.253906 Z M 45.902344 36.253906 "/>
<path style=" stroke:none;fill-rule:nonzero;fill:rgb(0%,0%,0%);fill-opacity:1;" d="M 31.25 37.417969 L 32.613281 38.777344 L 36.5 38.777344 L 35.140625 37.417969 L 33.777344 36.0625 L 29.886719 36.0625 Z M 31.25 37.417969 "/>
<path style=" stroke:none;fill-rule:nonzero;fill:rgb(0%,0%,0%);fill-opacity:1;" d="M 34.492188 36.164062 C 34.492188 36.382812 37.046875 38.777344 37.28125 38.777344 C 37.433594 38.777344 38.082031 38.234375 38.902344 37.417969 L 40.261719 36.0625 L 37.371094 36.0625 C 35.789062 36.0625 34.492188 36.101562 34.492188 36.164062 Z M 34.492188 36.164062 "/>
<path style=" stroke:none;fill-rule:nonzero;fill:rgb(0%,0%,0%);fill-opacity:1;" d="M 39.417969 37.417969 L 38.058594 38.777344 L 41.949219 38.777344 L 43.308594 37.417969 L 44.671875 36.0625 L 40.78125 36.0625 Z M 39.417969 37.417969 "/>
<path style=" stroke:none;fill-rule:nonzero;fill:rgb(0%,0%,0%);fill-opacity:1;" d="M 21.523438 39.808594 L 21.523438 43.429688 L 28.851562 43.429688 L 25.21875 39.808594 C 23.222656 37.820312 21.578125 36.191406 21.5625 36.191406 C 21.539062 36.191406 21.523438 37.820312 21.523438 39.808594 Z M 21.523438 39.808594 "/>
<path style=" stroke:none;fill-rule:nonzero;fill:rgb(0%,0%,0%);fill-opacity:1;" d="M 49.429688 39.71875 C 47.496094 41.644531 45.902344 43.273438 45.902344 43.339844 C 45.902344 43.390625 47.535156 43.429688 49.53125 43.429688 L 53.164062 43.429688 L 53.164062 39.808594 C 53.164062 37.820312 53.125 36.191406 53.058594 36.191406 C 53.007812 36.191406 51.375 37.78125 49.429688 39.71875 Z M 49.429688 39.71875 "/>
<path style=" stroke:none;fill-rule:nonzero;fill:rgb(0%,0%,0%);fill-opacity:1;" d="M 27.230469 39.898438 C 27.230469 39.953125 28.007812 40.765625 28.941406 41.710938 L 30.667969 43.429688 L 35.984375 43.429688 L 34.167969 41.617188 L 32.351562 39.808594 L 29.796875 39.808594 C 28.382812 39.808594 27.230469 39.847656 27.230469 39.898438 Z M 27.230469 39.898438 "/>
<path style=" stroke:none;fill-rule:nonzero;fill:rgb(0%,0%,0%);fill-opacity:1;" d="M 35.464844 41.617188 L 37.28125 43.429688 L 39.054688 41.65625 C 40.042969 40.675781 40.84375 39.859375 40.84375 39.847656 C 40.84375 39.824219 39.222656 39.808594 37.253906 39.808594 L 33.648438 39.808594 Z M 35.464844 41.617188 "/>
<path style=" stroke:none;fill-rule:nonzero;fill:rgb(0%,0%,0%);fill-opacity:1;" d="M 40.519531 41.617188 L 38.707031 43.429688 L 43.894531 43.429688 L 45.707031 41.617188 L 47.523438 39.808594 L 42.335938 39.808594 Z M 40.519531 41.617188 "/>
<path style=" stroke:none;fill-rule:nonzero;fill:rgb(0%,0%,0%);fill-opacity:1;" d="M 32.289062 44.890625 C 32.289062 45.070312 37.085938 49.890625 37.28125 49.890625 C 37.433594 49.890625 42.402344 44.964844 42.402344 44.8125 C 42.402344 44.761719 40.132812 44.722656 37.34375 44.722656 C 33.363281 44.722656 32.289062 44.761719 32.289062 44.890625 Z M 32.289062 44.890625 "/>
<path style=" stroke:none;fill-rule:nonzero;fill:rgb(0%,0%,0%);fill-opacity:1;" d="M 16.558594 59.351562 C 16.300781 60.582031 16.078125 61.664062 16.078125 61.742188 C 16.078125 61.871094 16.390625 61.910156 17.179688 61.910156 C 17.789062 61.910156 18.28125 61.886719 18.28125 61.847656 C 18.28125 61.808594 18.050781 60.75 17.765625 59.507812 C 17.480469 58.253906 17.246094 57.207031 17.246094 57.179688 C 17.246094 57.15625 17.207031 57.128906 17.140625 57.128906 C 17.089844 57.128906 16.832031 58.136719 16.558594 59.351562 Z M 16.558594 59.351562 "/>
<path style=" stroke:none;fill-rule:nonzero;fill:rgb(0%,0%,0%);fill-opacity:1;" d="M 35.179688 69.5 C 34.917969 69.601562 34.972656 70.417969 35.242188 70.558594 C 35.632812 70.765625 35.917969 70.492188 35.917969 69.925781 C 35.917969 69.472656 35.878906 69.40625 35.632812 69.421875 C 35.464844 69.421875 35.257812 69.460938 35.179688 69.5 Z M 35.179688 69.5 "/>
<path style=" stroke:none;fill-rule:nonzero;fill:rgb(0%,0%,0%);fill-opacity:1;" d="M 48.523438 68.011719 C 48.417969 68.117188 48.367188 68.59375 48.367188 69.304688 C 48.367188 70.25 48.40625 70.457031 48.597656 70.546875 C 48.847656 70.675781 49.15625 70.609375 49.300781 70.390625 C 49.351562 70.3125 49.402344 69.796875 49.402344 69.253906 C 49.402344 68.527344 49.351562 68.207031 49.195312 68.0625 C 48.949219 67.820312 48.730469 67.804688 48.523438 68.011719 Z M 48.523438 68.011719 "/>
<path style=" stroke:none;fill-rule:nonzero;fill:rgb(0%,0%,0%);fill-opacity:1;" d="M 8.816406 68.683594 C 8.816406 69.292969 8.855469 69.40625 9.050781 69.40625 C 9.480469 69.40625 9.609375 69.214844 9.570312 68.621094 C 9.53125 68.101562 9.492188 68.050781 9.179688 68.011719 C 8.816406 67.972656 8.816406 67.988281 8.816406 68.683594 Z M 8.816406 68.683594 "/>
<path style=" stroke:none;fill-rule:nonzero;fill:rgb(0%,0%,0%);fill-opacity:1;" d="M 16.128906 69.148438 L 15.988281 69.796875 L 16.6875 69.796875 L 16.558594 69.148438 C 16.492188 68.789062 16.390625 68.503906 16.351562 68.503906 C 16.300781 68.503906 16.195312 68.789062 16.128906 69.148438 Z M 16.128906 69.148438 "/>
<path style=" stroke:none;fill-rule:nonzero;fill:rgb(0%,0%,0%);fill-opacity:1;" d="M 56.238281 68.632812 C 56.199219 68.734375 56.105469 69.046875 56.03125 69.304688 C 55.914062 69.78125 55.914062 69.796875 56.277344 69.796875 C 56.640625 69.796875 56.640625 69.796875 56.523438 69.238281 C 56.355469 68.492188 56.316406 68.414062 56.238281 68.632812 Z M 56.238281 68.632812 "/>
</g>
</svg>
